<?xml version="1.0" encoding="UTF-8"?>
<!DOCTYPE svg PUBLIC "-//W3C//DTD SVG 1.1//EN" "http://www.w3.org/Graphics/SVG/1.1/DTD/svg11.dtd">
<!-- Creator: CorelDRAW 2019 (64-Bit) -->
<svg xmlns="http://www.w3.org/2000/svg" xml:space="preserve" width="3327px" height="904px" version="1.1" shape-rendering="geometricPrecision" text-rendering="geometricPrecision" image-rendering="optimizeQuality" fill-rule="evenodd" clip-rule="evenodd"
viewBox="0 0 4304.68 1169.73"
 xmlns:xlink="http://www.w3.org/1999/xlink"
 xmlns:xodm="http://www.corel.com/coreldraw/odm/2003">
 <defs>
   <linearGradient id="id0" gradientUnits="userSpaceOnUse" x1="293.13" y1="927.76" x2="584.86" y2="927.76">
    <stop offset="0" stop-opacity="1" stop-color="#28BCB5"/>
    <stop offset="1" stop-opacity="1" stop-color="#2DA2AB"/>
   </linearGradient>
   <linearGradient id="id1" gradientUnits="userSpaceOnUse" x1="293.13" y1="927.76" x2="584.86" y2="927.76">
    <stop offset="0" stop-opacity="1" stop-color="#28BCB5"/>
    <stop offset="1" stop-opacity="1" stop-color="#51B2C0"/>
   </linearGradient>
   <linearGradient id="id2" gradientUnits="userSpaceOnUse" x1="584.86" y1="259.66" x2="876.59" y2="259.66">
    <stop offset="0" stop-opacity="1" stop-color="#28BCB5"/>
    <stop offset="1" stop-opacity="1" stop-color="#51B2C0"/>
   </linearGradient>
   <linearGradient id="id3" gradientUnits="userSpaceOnUse" x1="7.49" y1="439" x2="476.44" y2="439">
    <stop offset="0" stop-opacity="1" stop-color="#28BCB5"/>
    <stop offset="1" stop-opacity="1" stop-color="#51B2C0"/>
   </linearGradient>
   <linearGradient id="id4" gradientUnits="userSpaceOnUse" x1="7.49" y1="439" x2="476.44" y2="439">
    <stop offset="0" stop-opacity="1" stop-color="#28BCB5"/>
    <stop offset="1" stop-opacity="1" stop-color="#51B2C0"/>
   </linearGradient>
   <linearGradient id="id5" gradientUnits="userSpaceOnUse" x1="657.91" y1="730.73" x2="1162.23" y2="730.73">
    <stop offset="0" stop-opacity="1" stop-color="#28BCB5"/>
    <stop offset="1" stop-opacity="1" stop-color="#51B2C0"/>
   </linearGradient>
 </defs>
 <g id="Layer_x0020_1">
  <metadata id="CorelCorpID_0Corel-Layer"/>
  <g id="_1674474177152">
   <path fill="#334169" fill-rule="nonzero" d="M1607.71 1093.12l0 -75.57 89.79 0 0 75.57 21.35 0 0 -169.3 -21.35 0 0 73.12 -89.79 0 0 -73.12 -21.35 0 0 169.3 21.35 0zm390.6 0l0 -20.61 -80.47 0 0 -54.96 74.09 0 0 -20.61 -74.09 0 0 -52.51 79.74 0 0 -20.61 -101.09 0 0 169.3 101.82 0zm177.88 0l18.16 -47.6 73.61 0 18.16 47.6 23.06 0 -66 -169.3 -23.56 0 -66 169.3 22.57 0zm54.97 -143.54l28.95 75.57 -57.91 0 28.96 -75.57zm335.4 143.54l0 -20.61 -73.6 0 0 -148.69 -21.35 0 0 169.3 94.95 0zm202.92 0l0 -148.69 54.47 0 0 -20.61 -130.29 0 0 20.61 54.47 0 0 148.69 21.35 0zm240.45 0l0 -75.57 89.8 0 0 75.57 21.35 0 0 -169.3 -21.35 0 0 73.12 -89.8 0 0 -73.12 -21.35 0 0 169.3 21.35 0zm364.59 2.45c32.15,0 59.63,-16.68 74.1,-44.16l-19.14 -9.82c-11.04,20.86 -30.67,33.37 -54.96,33.37 -37.04,0 -64.53,-28.46 -64.53,-66.49 0,-38.03 27.49,-66.49 64.53,-66.49 24.29,0 43.92,12.51 54.96,33.37l19.14 -9.82c-14.47,-27.48 -41.95,-44.16 -74.1,-44.16 -48.09,0 -85.87,37.54 -85.87,87.1 0,49.56 37.78,87.1 85.87,87.1zm247.82 -2.45l18.15 -47.6 73.61 0 18.16 47.6 23.06 0 -66 -169.3 -23.55 0 -66.01 169.3 22.58 0zm54.96 -143.54l28.95 75.57 -57.91 0 28.96 -75.57zm261.79 143.54l0 -64.78 36.81 0 36.07 64.78 24.53 0 -38.28 -68.21c20.86,-7.36 34.35,-25.52 34.35,-48.83 0,-30.91 -21.83,-52.26 -54.71,-52.26l-60.11 0 0 169.3 21.34 0zm0 -148.69l37.3 0c20.85,0 34.84,11.78 34.84,31.65 0,19.63 -13.99,31.65 -34.84,31.65l-37.3 0 0 -63.3zm365.59 148.69l0 -20.61 -80.48 0 0 -54.96 74.09 0 0 -20.61 -74.09 0 0 -52.51 79.74 0 0 -20.61 -101.09 0 0 169.3 101.83 0z"/>
   <path fill="#334169" fill-rule="nonzero" d="M1695.25 731.43l0 -266.54c0,-74.63 46.24,-122.12 116.6,-122.12 70.35,0 113.58,45.55 113.58,122.12l0 266.54 111.57 0 0 -266.54c0,-74.63 46.23,-122.12 115.59,-122.12 71.36,0 114.58,45.55 114.58,122.12l0 266.54 111.57 0 0 -276.23c0,-130.85 -85.44,-214.2 -208.06,-214.2 -74.38,0 -138.71,31.02 -176.91,82.39 -33.16,-54.28 -90.46,-82.39 -161.82,-82.39 -59.31,0 -109.56,20.36 -141.72,57.19l0 -47.5 -106.55 0 0 480.74 111.57 0zm1008.15 9.69c96.49,0 174.89,-43.61 225.15,-116.31l-92.47 -50.39c-26.14,43.61 -72.37,72.69 -132.68,72.69 -78.4,0 -134.69,-44.59 -147.76,-123.09l390 0c2.01,-11.64 2.01,-24.23 2.01,-35.87 0,-142.47 -103.53,-247.15 -249.28,-247.15 -141.72,0 -253.29,109.52 -253.29,250.06 0,139.57 111.57,250.06 258.32,250.06zm-6.03 -407.07c75.38,0 127.65,46.52 137.7,111.46l-276.41 0c16.08,-69.79 69.35,-111.46 138.71,-111.46zm556.82 407.07c70.36,0 130.67,-27.14 166.85,-73.66l0 63.97 106.55 0 0 -668.77 -111.58 0 0 247.16c-37.18,-43.62 -94.48,-68.82 -161.82,-68.82 -142.73,0 -251.28,109.52 -251.28,250.06 0,140.54 108.55,250.06 251.28,250.06zm12.06 -101.77c-87.45,0 -151.77,-62.03 -151.77,-148.29 0,-86.26 64.32,-149.26 151.77,-149.26 87.45,0 150.77,63 150.77,149.26 0,86.26 -63.32,148.29 -150.77,148.29zm426.18 -464.26c37.19,0 64.33,-26.16 64.33,-61.06 0,-35.86 -27.14,-62.03 -64.33,-62.03 -37.19,0 -64.33,26.17 -64.33,62.03 0,34.9 27.14,61.06 64.33,61.06zm55.28 556.34l0 -480.74 -111.57 0 0 480.74 111.57 0zm180.92 0l117.6 -176.4 116.6 176.4 131.67 0 -165.84 -241.34 155.79 -239.4 -126.65 0 -109.56 171.56 -109.56 -171.56 -128.65 0 155.8 239.4 -166.86 241.34 129.66 0z"/>
  </g>
  <path fill="url(#id0)" d="M453.32 1169.04c75.84,-7.23 131.54,-75.26 131.54,-151.45l0 -161.5c-63.57,-63.58 -99.21,-99.23 -162.79,-162.8l-128.94 0 0 330.57c0,85.28 73.19,153.47 160.19,145.18z"/>
  <path fill="url(#id1)" d="M453.32 1169.04c75.84,-7.23 131.54,-75.26 131.54,-151.45l0 -161.5c-63.57,-63.58 -99.21,-99.23 -162.79,-162.8l-128.94 0 0 330.57c0,85.28 73.19,153.47 160.19,145.18z"/>
  <path fill="url(#id2)" d="M716.41 0.68c-75.84,7.23 -131.55,75.27 -131.55,151.46l0 196.89c63.58,63.57 99.22,99.21 162.8,162.79l128.93 0 0 -365.95c0,-85.28 -73.19,-153.48 -160.18,-145.19z"/>
  <path fill="url(#id3)" d="M0.68 453.32c7.23,75.84 75.27,131.54 151.46,131.54l161.5 0c63.58,-63.57 99.22,-99.22 162.8,-162.8l0 -128.93 -330.57 0c-85.29,0 -153.48,73.19 -145.19,160.19z"/>
  <path fill="url(#id4)" d="M0.68 453.32c7.23,75.84 75.27,131.54 151.46,131.54l161.5 0c63.58,-63.57 99.22,-99.22 162.8,-162.8l0 -128.93 -330.57 0c-85.29,0 -153.48,73.19 -145.19,160.19z"/>
  <path fill="url(#id5)" d="M1169.04 716.41c-7.23,-75.85 -75.26,-131.55 -151.45,-131.55l-196.89 0c-63.57,63.58 -99.22,99.22 -162.79,162.8l0 128.93 365.95 0c85.29,0 153.47,-73.19 145.18,-160.18z"/>
 </g>
</svg>
